<svg width="1041" height="554" viewBox="0 0 1041 554" fill="none" xmlns="http://www.w3.org/2000/svg">
<g clip-path="url(#clip0_414_206)">
<path opacity="0.1" d="M961.184 438.076C960.025 440.575 958.869 443.041 957.716 445.473C955.916 449.252 954.14 452.958 952.387 456.59C951.608 458.199 950.828 459.779 950.068 461.358C941.471 478.923 933.443 494.458 926.625 507.234C920.439 518.811 911.253 528.51 900.03 535.317C888.807 542.124 875.96 545.787 862.835 545.923L711.231 547.572H709.632L696.636 547.712L685.519 547.832L651.43 548.202H650.05L632.695 548.392H632.166L525.199 549.551L429.718 550.551L418.611 550.671L349.633 551.421H349.553L304.816 551.901H304.336L162.88 553.43L120.563 553.89C111.532 553.992 102.54 552.704 93.9011 550.071C78.8679 545.53 65.3573 536.976 54.8231 525.329C36.6487 505.305 23.4028 481.942 14.5055 456.59C13.2193 452.931 12.0196 449.226 10.9066 445.473C-19.8939 341.355 17.6546 207.026 85.2338 117.134C88.0663 113.375 90.9454 109.71 93.8711 106.137L93.9411 106.057C114.725 80.5453 138.028 59.2318 162.85 44.0765C206.836 17.1747 255.571 9.59707 303.507 32.1801C344.064 51.2943 381.933 60.2815 418.641 62.7208C422.35 62.9607 426.059 63.1406 429.748 63.2506C513.952 65.8998 592.868 35.5591 685.539 15.9751C689.228 15.1953 692.927 14.4256 696.656 13.6958C762.766 0.539846 836.103 -6.39802 923.316 8.1875C932.377 9.66771 941.318 11.806 950.068 14.5855C953.913 15.8252 957.619 17.1581 961.184 18.5843C1002.81 35.5191 1025.51 66.8095 1035.16 106.017C1036.07 109.656 1036.86 113.359 1037.53 117.124C1054.64 211.435 1004.54 345.214 961.184 438.076Z" fill="#56A3A6"/>
<g opacity="0.1">
<path d="M162.85 44.0764V553.54L120.533 554C111.502 554.102 102.51 552.814 93.8711 550.181V106.057H93.9411C114.725 80.5152 138.028 59.2018 162.85 44.0764Z" fill="#56A3A6"/>
<path d="M1037.58 117.134H85.2339C88.0663 113.375 90.9455 109.71 93.8712 106.137V106.057H1035.21C1036.12 109.676 1036.91 113.368 1037.58 117.134Z" fill="#56A3A6"/>
<path d="M961.184 18.5942V445.463H957.716C955.916 449.242 954.14 452.948 952.387 456.58C951.607 458.189 950.828 459.769 950.068 461.348V14.5554C953.913 15.795 957.619 17.1413 961.184 18.5942Z" fill="#56A3A6"/>
<path d="M696.656 13.6658V547.752L685.54 547.872V15.9451C689.228 15.1653 692.927 14.3955 696.656 13.6658Z" fill="#56A3A6"/>
<path d="M429.748 63.2205V550.651L418.642 550.771V62.6907C422.35 62.9306 426.059 63.0706 429.748 63.2205Z" fill="#56A3A6"/>
<path d="M957.716 445.473C955.916 449.252 954.14 452.958 952.387 456.59H14.5056C13.2194 452.931 12.0197 449.226 10.9067 445.473H957.716Z" fill="#56A3A6"/>
</g>
<path d="M230.529 265.749H211.535V323.391H230.529V265.749Z" fill="#031E26"/>
<path d="M741.702 262.749H722.708V323.731H741.702V262.749Z" fill="#031E26"/>
<path d="M862.835 533.486V546.482L710.961 547.882L709.342 547.912L651.62 548.442L650.24 548.462L632.696 548.612H632.176L525.229 549.601L349.673 551.231H349.523L304.886 551.651L304.406 551.661L106.067 553.48V538.485L152.703 510.493L246.274 509.714L248.274 509.704L248.933 509.694L250.933 509.664L295.859 509.294L297.868 509.284L298.508 509.274L300.508 509.264L314.913 509.144L315.293 509.134L350.832 508.834H351.122L628.437 506.495L635.225 506.445H635.905L641.083 506.395L678.721 506.085L680.721 506.055L682.57 506.035H683.53L695.236 505.945L697.556 505.915L700.665 505.895L710.412 505.805L725.877 505.675L727.876 505.655L731.355 505.635H732.005L806.692 504.995L862.835 533.486Z" fill="#084C61"/>
<path opacity="0.2" d="M862.835 533.486V546.482L710.961 547.882L709.342 547.912L651.62 548.442L650.24 548.462L632.696 548.612H632.176L525.229 549.601L349.673 551.231H349.523L304.886 551.651L304.406 551.661L106.067 553.48V538.485L152.703 510.493L246.274 509.714L248.274 509.704L248.933 509.694L250.933 509.664L295.859 509.294L297.868 509.284L298.508 509.274L300.508 509.264L314.913 509.144L315.293 509.134L350.832 508.834H351.122L628.437 506.495L635.225 506.445H635.905L641.083 506.395L678.721 506.085L680.721 506.055L682.57 506.035H683.53L695.236 505.945L697.556 505.915L700.665 505.895L710.412 505.805L725.877 505.675L727.876 505.655L731.355 505.635H732.005L806.692 504.995L862.835 533.486Z" fill="black"/>
<path d="M296.009 483.512V507.994C296.01 509.154 295.681 510.29 295.062 511.27C294.442 512.25 293.558 513.035 292.51 513.532C291.73 513.911 290.878 514.115 290.011 514.132L255.122 514.872C254.19 514.894 253.266 514.699 252.422 514.302C251.357 513.814 250.453 513.029 249.821 512.042C249.188 511.055 248.852 509.907 248.854 508.734V483.512H296.009Z" fill="#031E26"/>
<path opacity="0.1" d="M296.009 483.512V507.994C296.01 509.154 295.681 510.29 295.062 511.27C294.442 512.25 293.558 513.035 292.51 513.532C291.73 513.911 290.878 514.115 290.011 514.132L255.122 514.872C254.19 514.894 253.266 514.699 252.422 514.302C251.357 513.814 250.453 513.029 249.821 512.042C249.188 511.055 248.852 509.907 248.854 508.734V483.512H296.009Z" fill="black"/>
<path d="M298.009 483.512V507.994C298.009 509.154 297.681 510.29 297.061 511.27C296.442 512.25 295.557 513.035 294.51 513.532C293.73 513.911 292.877 514.115 292.01 514.132L257.121 514.872C256.189 514.894 255.265 514.699 254.422 514.302C253.356 513.814 252.453 513.029 251.82 512.042C251.188 511.055 250.852 509.907 250.853 508.734V483.512H298.009Z" fill="#031E26"/>
<path d="M727.876 483.512H680.721V515.002H727.876V483.512Z" fill="#031E26"/>
<path opacity="0.1" d="M727.876 483.512H680.721V515.002H727.876V483.512Z" fill="black"/>
<path d="M725.877 483.512H678.721V515.002H725.877V483.512Z" fill="#031E26"/>
<path opacity="0.1" d="M230.529 265.739V271.467L211.535 270.977V265.739H230.529Z" fill="black"/>
<path d="M355.551 104.368L332.728 268.318C332.583 269.365 332.058 270.322 331.252 271.006C330.446 271.691 329.416 272.054 328.359 272.027L145.615 267.288L142.147 267.198C141.543 267.184 140.948 267.042 140.403 266.783C139.857 266.523 139.372 266.152 138.98 265.693C138.587 265.233 138.296 264.696 138.125 264.117C137.954 263.537 137.908 262.928 137.988 262.33L163.61 90.7022C163.775 89.6391 164.333 88.6766 165.173 88.0047C166.013 87.3329 167.075 87.0005 168.149 87.0733L351.552 99.4895C352.144 99.5238 352.722 99.6804 353.25 99.9494C353.778 100.218 354.245 100.594 354.621 101.052C354.997 101.511 355.273 102.042 355.433 102.613C355.593 103.183 355.633 103.781 355.551 104.368Z" fill="#084C61"/>
<path d="M175.876 99.1296L156.552 250.413L324.5 255.742L345.154 109.786L175.876 99.1296Z" fill="#56A3A6"/>
<path d="M583.761 96.7903H389.81C386.868 96.7903 384.482 99.1759 384.482 102.119V264.739C384.482 267.682 386.868 270.067 389.81 270.067H583.761C586.703 270.067 589.089 267.682 589.089 264.739V102.119C589.089 99.1759 586.703 96.7903 583.761 96.7903Z" fill="#084C61"/>
<path d="M580.082 108.457H394.139V252.743H580.082V108.457Z" fill="#56A3A6"/>
<path opacity="0.1" d="M741.702 262.739V266.528L722.708 266.918V262.739H741.702Z" fill="black"/>
<path d="M827.406 259.54C827.433 259.955 827.376 260.37 827.238 260.762C827.101 261.153 826.885 261.513 826.605 261.819C826.325 262.126 825.986 262.372 825.608 262.544C825.23 262.716 824.822 262.809 824.407 262.819L637.264 266.688C636.487 266.704 635.732 266.426 635.152 265.908C634.571 265.391 634.208 264.673 634.135 263.899L618.05 96.6703C618.01 96.2554 618.055 95.8368 618.182 95.4398C618.309 95.0428 618.515 94.6756 618.788 94.3607C619.061 94.0457 619.395 93.7893 619.77 93.6073C620.145 93.4252 620.553 93.3211 620.969 93.3013L806.692 84.0642L808.692 83.9642C809.486 83.9223 810.266 84.1909 810.867 84.7131C811.467 85.2353 811.842 85.9705 811.911 86.7634L827.406 259.54Z" fill="#084C61"/>
<path d="M628.737 103.128L798.355 94.791L812.68 246.744L644.402 250.743L628.737 103.128Z" fill="#56A3A6"/>
<path opacity="0.1" d="M827.405 259.54C827.433 259.955 827.376 260.37 827.238 260.762C827.101 261.153 826.885 261.513 826.605 261.819C826.325 262.126 825.986 262.372 825.608 262.544C825.23 262.716 824.821 262.809 824.406 262.819L806.692 84.0642L808.691 83.9642C809.486 83.9223 810.266 84.1909 810.867 84.7131C811.467 85.2353 811.841 85.9705 811.91 86.7634L827.405 259.54Z" fill="black"/>
<path opacity="0.1" d="M168.179 87.0634L145.615 267.288L142.147 267.198C141.543 267.184 140.948 267.042 140.403 266.783C139.857 266.524 139.372 266.152 138.98 265.693C138.587 265.233 138.296 264.696 138.125 264.117C137.954 263.537 137.908 262.928 137.988 262.33L163.61 90.7023C163.773 89.6318 164.334 88.6624 165.181 87.9878C166.028 87.3132 167.099 86.983 168.179 87.0634Z" fill="black"/>
<path opacity="0.1" d="M230.529 306.316H211.535V323.391H230.529V306.316Z" fill="black"/>
<path opacity="0.1" d="M298.009 483.501V488.47L250.853 489.73V483.501H298.009Z" fill="black"/>
<path d="M381.233 312.264V480.413C381.221 481.439 380.814 482.421 380.098 483.156C379.381 483.892 378.41 484.323 377.384 484.361L185.793 489.46H185.743C184.699 489.447 183.703 489.027 182.965 488.289C182.227 487.551 181.807 486.554 181.794 485.511V312.264C181.807 311.221 182.227 310.224 182.965 309.486C183.703 308.749 184.699 308.328 185.743 308.315H377.284C378.327 308.328 379.324 308.749 380.062 309.486C380.799 310.224 381.22 311.221 381.233 312.264Z" fill="#084C61"/>
<path opacity="0.1" d="M185.793 308.315V489.46H185.743C184.699 489.447 183.703 489.027 182.965 488.289C182.227 487.551 181.807 486.554 181.794 485.511V312.264C181.807 311.221 182.227 310.224 182.965 309.486C183.703 308.749 184.699 308.328 185.743 308.315H185.793Z" fill="black"/>
<path d="M194.54 319.052H371.986V467.257L194.54 471.255V319.052Z" fill="#D4DFEC"/>
<path opacity="0.1" d="M741.702 306.316H722.708V323.731H741.702V306.316Z" fill="black"/>
<path opacity="0.1" d="M725.877 483.501V489.91L678.721 488.65V483.501H725.877Z" fill="black"/>
<path d="M788.108 312.264V485.511C788.094 486.563 787.667 487.567 786.919 488.306C786.17 489.045 785.161 489.46 784.109 489.46L592.478 484.361C591.452 484.323 590.48 483.892 589.764 483.156C589.047 482.421 588.641 481.439 588.629 480.413V312.264C588.642 311.221 589.062 310.224 589.8 309.486C590.538 308.749 591.534 308.328 592.578 308.315H784.119C785.169 308.318 786.176 308.734 786.922 309.472C787.669 310.211 788.094 311.214 788.108 312.264Z" fill="#084C61"/>
<path opacity="0.1" d="M788.108 312.264V485.511C788.095 486.563 787.667 487.567 786.919 488.306C786.17 489.045 785.161 489.46 784.109 489.46V308.315C785.161 308.315 786.17 308.73 786.919 309.469C787.667 310.208 788.095 311.212 788.108 312.264Z" fill="black"/>
<path d="M775.361 319.052H597.916V467.257L775.361 471.255V319.052Z" fill="#D4DFEC"/>
<path d="M583.671 312.264V480.413C583.659 481.439 583.252 482.421 582.536 483.156C581.819 483.892 580.848 484.323 579.822 484.361L388.231 489.46C387.179 489.46 386.169 489.045 385.421 488.306C384.672 487.567 384.245 486.563 384.232 485.511V312.264C384.245 311.221 384.665 310.224 385.403 309.486C386.141 308.749 387.137 308.328 388.181 308.315H579.722C580.765 308.328 581.762 308.749 582.5 309.486C583.237 310.224 583.658 311.221 583.671 312.264Z" fill="#084C61"/>
<path d="M396.978 319.052H574.423V467.257L396.978 471.255V319.052Z" fill="#D4DFEC"/>
<path opacity="0.1" d="M862.835 533.486V546.482L710.961 547.882L709.342 547.912L651.62 548.442L650.24 548.462L632.696 548.612H632.176L525.229 549.601L349.673 551.231H349.523L304.886 551.651L304.406 551.661L106.067 553.48V538.485L308.515 537.155H308.995L349.972 536.875H350.162L633.155 535.006H633.445L633.615 534.996H634.085L638.874 534.966H640.333L714.8 534.466L719.199 534.446L720.179 534.436L862.835 533.486Z" fill="black"/>
<path d="M487.11 323.391C515.45 323.391 538.424 300.417 538.424 272.076C538.424 243.736 515.45 220.762 487.11 220.762C458.77 220.762 435.796 243.736 435.796 272.076C435.796 300.417 458.77 323.391 487.11 323.391Z" fill="#FBBEBE"/>
<path d="M304.307 552.011C304.307 551.901 304.367 551.781 304.407 551.661C305.406 548.072 307.186 542.004 308.515 537.155C308.685 536.555 308.845 535.966 308.995 535.406C310.465 529.937 313.324 517.131 314.913 509.144C315.473 506.335 315.913 504.145 316.003 503.046C316.203 501.356 319.212 494.128 322.621 485.821C325.01 479.983 327.619 473.605 329.529 468.226C330.779 465.032 331.759 461.738 332.458 458.379C332.608 457.677 332.608 456.952 332.458 456.25C332.158 455.107 331.997 453.932 331.978 452.751C331.748 446.553 333.598 436.756 336.457 432.647C339.956 427.649 342.455 408.995 342.455 408.995C342.455 408.995 347.633 409.744 348.453 405.466C348.54 405.004 348.573 404.535 348.553 404.066C348.551 403.694 348.521 403.323 348.463 402.956C347.573 396.718 363.179 390.08 371.956 388.651C372.947 388.481 373.95 388.387 374.955 388.371C377.087 388.139 379.184 387.656 381.203 386.931C382.136 386.645 383.136 386.312 384.202 385.932C387.881 384.692 392.28 383.053 396.948 381.253C414.503 374.445 435.756 365.258 435.756 365.258C435.906 364.548 436.076 363.868 436.266 363.199C437.316 358.984 439.342 355.075 442.182 351.787C445.021 348.5 448.594 345.926 452.611 344.274C452.611 343.615 452.611 342.945 452.611 342.275C452.611 338.826 452.461 335.277 452.311 331.738C452.311 331.048 452.251 330.359 452.211 329.669C452.211 329.469 452.211 329.259 452.211 329.059C452.211 328.859 452.211 328.709 452.211 328.539C452.211 327.839 452.141 327.14 452.101 326.45L451.921 326.31C450.385 325.15 449.066 323.729 448.022 322.111C447.442 321.166 446.966 320.16 446.603 319.112C445.353 315.723 445.063 311.944 444.224 308.365L444.044 307.626C442.95 304.014 441.614 300.481 440.045 297.049C437.836 291.631 436.136 286.052 434.447 280.404C433.42 276.985 432.384 273.559 431.338 270.127L429.758 264.889C429.458 263.889 429.158 262.889 428.928 261.89C428.817 261.428 428.73 260.961 428.668 260.49C428.388 258.956 428.47 257.378 428.908 255.882C429.297 254.86 429.737 253.859 430.228 252.882C430.437 252.439 430.605 251.977 430.728 251.503C430.76 251.398 430.787 251.291 430.808 251.183C430.879 250.827 430.916 250.466 430.918 250.103C430.883 248.792 430.709 247.489 430.398 246.214C430.392 246.198 430.392 246.181 430.398 246.164C430.386 246.074 430.369 245.984 430.348 245.895C430.169 244.903 430.049 243.901 429.988 242.896C429.636 237.482 430.84 232.082 433.457 227.33L433.647 226.97C434.198 226.004 434.813 225.076 435.486 224.191C435.796 223.771 436.116 223.371 436.486 222.972C435.086 224.311 432.787 223.721 431.488 222.282C431.273 222.057 431.088 221.805 430.938 221.532C430.851 221.387 430.774 221.237 430.708 221.082C430.658 220.962 430.618 220.832 430.578 220.702C429.878 218.253 431.098 215.644 432.697 213.654C434.273 211.717 436.225 210.118 438.435 208.956C438.564 208.878 438.698 208.808 438.835 208.746C439.684 208.32 440.567 207.966 441.475 207.686C442.009 207.509 442.553 207.362 443.104 207.246L439.395 206.907L437.896 206.767C438.64 203.813 440.297 201.17 442.63 199.212C444.963 197.254 447.854 196.081 450.892 195.86H451.971C452.497 195.868 453.021 195.911 453.541 195.99C452.71 195.626 452.01 195.015 451.537 194.242C451.063 193.468 450.838 192.567 450.892 191.661C453.509 193.71 456.755 194.791 460.079 194.72H460.459C460.286 193.638 460.172 192.546 460.119 191.451C460.019 189.967 460.019 188.477 460.119 186.993C461.014 187.842 462.086 188.485 463.257 188.875C464.428 189.265 465.67 189.394 466.897 189.252L464.817 186.353C466.67 187.831 469.01 188.562 471.375 188.402L471.855 188.352C472.258 188.31 472.656 188.233 473.045 188.122H473.135C472.945 187.882 472.775 187.632 472.605 187.373L472.545 187.253C472.129 186.599 471.794 185.897 471.545 185.163C471.446 184.879 471.365 184.589 471.305 184.293C470.869 182.476 471.027 180.567 471.755 178.845C474.984 181.544 478.523 185.233 482.752 182.444C486.98 179.655 487.12 174.536 493.748 175.056C495.57 175.228 497.311 175.887 498.791 176.963C500.27 178.04 501.432 179.494 502.156 181.174C503.091 180.118 504.333 179.381 505.708 179.067C507.084 178.753 508.523 178.879 509.823 179.425C511.103 180.031 512.162 181.019 512.857 182.253C513.552 183.486 513.847 184.905 513.702 186.313C516.451 185.623 519.411 184.943 522.05 185.983C524.689 187.023 526.388 190.392 524.889 192.641C524.848 192.711 524.801 192.778 524.749 192.841C523.519 194.43 520.8 195.3 521.09 197.299L521.51 197.599L522.809 198.539C527.908 202.218 532.873 206.083 537.705 210.136C540.184 212.215 542.823 214.714 542.993 217.963C543.023 218.76 542.942 219.558 542.753 220.332C542.593 221.112 542.374 221.892 542.204 222.672C541.776 224.658 541.661 226.698 541.864 228.72C541.934 229.31 542.024 229.889 542.134 230.479C543.663 238.207 549.841 244.585 550.451 252.473V253.032C550.488 253.876 550.464 254.721 550.381 255.562C549.921 260.36 547.702 264.969 545.902 269.557C545.792 269.837 545.682 270.117 545.583 270.397C542.114 279.394 540.114 288.981 538.585 298.548C538.091 301.943 537.424 305.309 536.585 308.635C535.673 312.442 533.936 316.001 531.497 319.062C530.522 320.213 529.392 321.223 528.138 322.061C527.294 322.601 526.408 323.073 525.489 323.471C525.489 323.471 525.489 323.471 525.489 323.531C525.599 324.141 525.689 324.75 525.799 325.36C525.859 325.68 525.909 326 525.968 326.36C525.964 326.38 525.964 326.4 525.968 326.42C526.808 331.148 527.768 335.777 528.778 340.176L529.287 342.365C541.884 346.914 543.373 356.231 543.463 359.8C543.499 360.275 543.499 360.753 543.463 361.229C543.463 361.229 562.457 361.729 569.955 367.227C571.356 368.179 572.871 368.951 574.464 369.527C577.487 370.669 580.575 371.634 583.711 372.416C585.32 372.836 587 373.245 588.709 373.645C591.708 374.335 594.887 375.005 597.956 375.645C606.144 377.294 613.851 378.644 617.76 379.644C627.087 382.003 648.421 402.457 648.421 402.457C648.421 402.457 650.92 423.09 653.419 426.099C655.919 429.108 660.417 439.685 660.417 439.685L676.952 469.086L683.95 481.452H688.449C689.068 481.452 690.288 482.332 691.658 483.552C692.847 484.611 694.167 485.931 695.326 487.131L697.246 489.18L698.446 490.51C698.446 490.51 705.713 490.689 707.683 496.438C713.601 496.268 720.869 496.658 725.957 498.937C726.651 499.243 727.32 499.604 727.956 500.017C729 500.621 729.906 501.436 730.617 502.411C731.328 503.385 731.828 504.497 732.085 505.675C732.187 506.149 732.247 506.63 732.265 507.114C732.265 507.684 732.265 508.254 732.265 508.814C731.905 516.382 726.977 522.68 722.448 526.918L722.768 527.488C722.768 527.488 722.618 527.848 722.328 528.488C722.248 528.678 722.148 528.888 722.038 529.128C721.448 530.387 720.509 532.277 719.279 534.486C716.67 539.268 713.454 543.693 709.712 547.652L709.422 547.952L651.7 548.482L651.53 548.282L640.333 534.926L634.765 528.288L634.595 528.078L634.435 529.667L633.895 534.966L632.596 547.772L632.526 548.412V548.582L632.376 550.061L632.486 548.582H632.196L525.229 549.581L349.663 551.521V552.361H349.523V551.521L304.787 552.001L304.307 552.011Z" fill="url(#paint0_linear_414_206)"/>
<path d="M538.434 377.044C538.434 377.044 438.965 389.041 448.462 377.044C451.901 372.706 452.851 359.849 452.661 345.204C452.601 340.755 452.441 336.147 452.211 331.558C451.111 309.565 448.462 288.071 448.462 288.071C448.462 288.071 535.435 247.084 525.438 279.574C521.44 292.7 522.749 311.134 525.788 328.439C526.678 333.488 527.708 338.436 528.787 343.135C531.422 354.595 534.642 365.913 538.434 377.044Z" fill="#FBBEBE"/>
<path opacity="0.1" d="M538.434 377.044C538.434 377.044 438.965 389.041 448.462 377.044C451.901 372.706 452.851 359.849 452.661 345.204C467.826 338.726 487.12 343.555 487.12 343.555C507.434 339.506 520.46 340.296 528.787 343.135C531.422 354.595 534.642 365.913 538.434 377.044Z" fill="black"/>
<path d="M349.633 552.361V551.521L525.199 549.611L632.166 548.612H632.466L632.356 550.091L632.506 548.612H632.695V548.442L634.065 534.996L634.585 529.907L634.745 528.318L634.885 526.988L641.063 506.385L647.241 485.811L652.439 468.486L660.377 442.014C660.377 442.014 655.878 431.518 653.379 428.519C650.88 425.519 648.381 405.026 648.381 405.026C648.381 405.026 627.047 384.702 617.72 382.363C613.811 381.363 606.094 380.033 597.896 378.364C594.827 377.744 591.678 377.084 588.649 376.365C586.94 375.975 585.26 375.565 583.651 375.155C580.518 374.372 577.431 373.418 574.403 372.296C572.816 371.719 571.305 370.95 569.905 370.007C562.557 364.618 544.143 364.008 543.433 364.008C543.431 363.985 543.431 363.962 543.433 363.938V363.848C543.459 363.429 543.459 363.008 543.433 362.589C543.433 362.189 543.433 361.719 543.343 361.189C543.343 361.029 543.343 360.859 543.273 360.689C543.223 360.329 543.163 359.95 543.073 359.55C543.043 359.371 543.003 359.194 542.953 359.02C542.663 357.815 542.244 356.646 541.704 355.531C541.634 355.371 541.544 355.201 541.464 355.041C540.973 354.118 540.405 353.238 539.764 352.412C539.634 352.242 539.494 352.062 539.344 351.892C538.525 350.926 537.615 350.043 536.625 349.253C536.355 349.043 536.075 348.823 535.785 348.623C535.624 348.492 535.453 348.372 535.275 348.263L534.386 347.683L533.556 347.203C532.826 346.804 532.056 346.414 531.217 346.044C530.957 345.924 530.677 345.814 530.397 345.704C530.117 345.594 529.677 345.424 529.307 345.284H529.247L528.498 344.984C527.928 344.794 527.348 344.624 526.738 344.454L525.808 344.214L524.809 343.984L523.809 343.775C522.809 343.575 521.74 343.395 520.62 343.255L519.48 343.115L518.311 342.995L517.101 342.895L515.382 342.795L513.382 342.725C504.564 342.724 495.771 343.659 487.15 345.514C481.161 344.181 475.027 343.617 468.896 343.834H468.026L467.026 343.894H466.387L465.097 344.014C464.667 344.014 464.227 344.104 463.797 344.164C463.368 344.224 462.918 344.274 462.488 344.344L461.828 344.454C461.178 344.564 460.518 344.684 459.829 344.824C459.609 344.864 459.389 344.914 459.169 344.974C458.299 345.164 457.429 345.394 456.57 345.654C456.14 345.774 455.71 345.914 455.28 346.064C455.06 346.124 454.85 346.204 454.64 346.284L454 346.514L453.371 346.764L452.621 347.064C452.241 347.224 451.871 347.393 451.501 347.573C451.291 347.663 451.081 347.763 450.881 347.873C450.681 347.983 450.472 348.073 450.282 348.183C448.021 349.351 445.932 350.825 444.073 352.562L443.564 353.052L443.064 353.562C442.894 353.732 442.734 353.911 442.574 354.091C441.922 354.804 441.315 355.555 440.754 356.341C440.595 356.551 440.445 356.761 440.295 356.98C439.66 357.916 439.086 358.891 438.575 359.9C438.445 360.14 438.325 360.389 438.205 360.629C437.389 362.318 436.721 364.074 436.206 365.878C436.019 366.544 435.849 367.211 435.696 367.877C435.696 367.877 414.533 377.214 396.978 383.972C392.309 385.772 387.911 387.401 384.232 388.631C383.162 388.991 382.163 389.321 381.233 389.63C379.216 390.36 377.118 390.843 374.985 391.07C373.979 391.086 372.977 391.18 371.986 391.35C363.918 392.66 350.092 398.348 348.583 404.056C348.46 404.512 348.426 404.987 348.483 405.456C348.483 405.456 348.483 405.526 348.483 405.566C349.483 412.563 342.485 411.564 342.485 411.564C342.485 411.564 339.985 430.058 336.487 435.057C333.957 438.655 332.228 446.683 332.008 452.741C331.882 454.629 332.03 456.524 332.448 458.369C332.448 458.419 332.448 458.469 332.448 458.509C332.848 459.849 331.888 463.508 330.258 468.196C328.489 473.345 325.91 479.743 323.431 485.781C319.692 494.898 316.173 503.176 315.953 504.995C315.863 505.805 315.603 507.254 315.243 509.124C313.784 516.741 310.545 531.247 308.945 537.115C307.755 541.494 306.026 547.492 304.836 551.611C304.836 551.731 304.766 551.851 304.736 551.961L349.553 551.521V552.361H349.693H349.633Z" fill="#56A3A6"/>
<path opacity="0.1" d="M365.987 434.527C365.987 434.527 422.97 464.018 443.463 460.519L365.987 434.527Z" fill="black"/>
<path opacity="0.1" d="M481.952 422.53C481.952 422.53 537.435 440.525 555.929 443.024C574.423 445.523 481.952 422.53 481.952 422.53Z" fill="black"/>
<path opacity="0.1" d="M543.493 364.628C514.502 369.967 459.918 368.817 436.326 368.007C444.973 337.017 487.14 347.553 487.14 347.553C539.334 337.137 543.333 358.75 543.493 364.628Z" fill="black"/>
<path d="M543.493 362.629C514.502 367.967 459.918 366.817 436.326 366.008C444.973 335.017 487.14 345.554 487.14 345.554C539.334 335.137 543.333 356.751 543.493 362.629Z" fill="#56A3A6"/>
<path d="M697.386 499.257C697.386 499.257 731.535 494.009 732.205 509.004C732.875 523.999 714.79 534.476 714.79 534.476L697.386 499.257Z" fill="#FBBEBE"/>
<path opacity="0.1" d="M525.789 328.439C524.32 329.096 522.818 329.676 521.29 330.179C510.513 333.897 499.647 337.646 488.3 339.006C476.954 340.365 465.047 339.166 455.15 333.508C454.111 332.921 453.109 332.27 452.151 331.558C451.052 309.565 448.402 288.071 448.402 288.071C448.402 288.071 535.376 247.084 525.379 279.574C521.4 292.7 522.749 311.134 525.789 328.439Z" fill="black"/>
<path d="M473.035 191.871C471.608 192.248 470.113 192.286 468.669 191.982C467.225 191.678 465.871 191.041 464.717 190.122L466.797 193.011C465.571 193.152 464.33 193.024 463.159 192.636C461.988 192.247 460.917 191.607 460.019 190.761C459.83 193.348 459.938 195.947 460.339 198.509C456.898 198.675 453.511 197.612 450.782 195.51C450.728 196.412 450.953 197.308 451.425 198.079C451.897 198.849 452.593 199.456 453.421 199.819C449.965 199.406 446.476 200.264 443.607 202.235C440.737 204.205 438.682 207.152 437.826 210.525L443.044 211.005C438.943 211.881 435.262 214.127 432.607 217.373C431.008 219.373 429.788 221.932 430.488 224.371C431.188 226.81 434.567 228.37 436.406 226.63C433.789 229.753 431.888 233.411 430.834 237.347C429.781 241.282 429.601 245.401 430.308 249.413C430.782 251.123 430.938 252.906 430.768 254.672C430.438 256.321 429.398 257.751 428.878 259.36C427.879 262.279 428.828 265.448 429.718 268.358L434.407 283.773C436.106 289.341 437.796 294.919 440.015 300.308C441.587 303.714 442.923 307.225 444.014 310.815C445.273 315.653 445.323 320.951 448.012 325.18C449.856 327.841 452.319 330.013 455.19 331.508C465.077 337.166 477.024 338.366 488.34 337.006C499.657 335.647 510.513 331.898 521.28 328.179C523.672 327.459 525.968 326.452 528.118 325.18C535.566 320.302 537.225 310.325 538.615 301.537C540.164 291.74 542.234 281.963 545.902 272.746C548.082 267.258 550.901 261.69 550.421 255.811C549.811 248.004 543.633 241.676 542.104 233.998C541.592 231.432 541.615 228.787 542.174 226.231C542.648 224.707 542.914 223.127 542.963 221.532C542.793 218.313 540.154 215.834 537.675 213.764C532.297 209.272 526.745 205.027 521.02 201.028C520.73 199.029 523.449 198.169 524.679 196.59C526.418 194.36 524.619 190.821 521.98 189.782C519.341 188.742 516.381 189.422 513.632 190.112C513.811 188.704 513.532 187.277 512.834 186.042C512.137 184.806 511.06 183.829 509.763 183.255C508.465 182.681 507.017 182.541 505.634 182.856C504.251 183.171 503.007 183.924 502.086 185.003C501.356 183.329 500.189 181.882 498.709 180.813C497.228 179.743 495.487 179.091 493.668 178.925C487.04 178.405 486.911 183.474 482.672 186.263C478.433 189.052 474.934 185.373 471.675 182.694C471.076 184.208 470.887 185.854 471.126 187.465C471.364 189.076 472.023 190.595 473.035 191.871Z" fill="#031E26"/>
<path d="M722.708 529.248C722.708 529.248 721.818 531.367 720.179 534.436C717.699 539.158 714.679 543.576 711.181 547.602L710.911 547.892H709.292L651.57 548.422H650.19L650.02 548.222L638.824 534.936L634.605 529.927L634.435 529.717L634.075 529.298L633.875 529.058L633.615 528.748L625.408 519.011L628.407 506.515L633.515 485.461L633.645 484.951L634.645 480.952L635.355 477.953L637.734 468.176L645.891 434.537L660.387 442.034L675.672 469.026L683.88 483.522H688.378C689.228 483.522 691.178 485.161 693.137 487.05C693.837 487.72 694.536 488.43 695.136 489.05C696.916 490.889 698.325 492.469 698.325 492.469C698.325 492.469 705.613 492.629 707.572 498.367C707.674 498.645 707.757 498.929 707.822 499.217C708.473 501.472 709.319 503.667 710.352 505.775C711.641 508.584 713.261 511.773 714.9 514.962C717.949 520.81 721.048 526.378 722.188 528.398L722.328 528.648L722.708 529.248Z" fill="#56A3A6"/>
<path opacity="0.1" d="M636.834 484.112L636.734 485.541V485.641L636.564 487.94L635.235 506.445L633.625 528.738L633.165 535.016L632.166 548.452V548.622L525.198 549.621L349.662 551.521V552.361H349.522V551.521V551.241L349.972 536.885L350.832 508.834L351.572 485.051L351.642 482.682C351.686 481.252 352.02 479.846 352.626 478.55C353.231 477.253 354.094 476.094 355.163 475.142C356.231 474.191 357.482 473.467 358.84 473.016C360.197 472.564 361.633 472.394 363.058 472.515C367.777 472.915 373.905 473.405 381.233 473.925L384.232 474.145C426.549 477.084 504.755 480.883 583.67 476.144C585.33 476.054 586.999 475.954 588.669 475.834C600.905 475.064 613.131 474.075 625.238 472.835C626.768 472.675 628.315 472.852 629.77 473.354C631.224 473.856 632.551 474.671 633.657 475.741C634.762 476.812 635.62 478.111 636.169 479.549C636.718 480.986 636.945 482.527 636.834 484.062V484.112Z" fill="black"/>
<path d="M349.632 552.36V551.521L525.198 549.611L632.165 548.612H632.465V548.442L633.465 535.006L633.895 529.008L635.534 506.405L636.824 488.51V488.07C636.884 487.246 636.847 486.417 636.714 485.601C636.72 485.568 636.72 485.534 636.714 485.501C636.439 483.814 635.753 482.22 634.715 480.862C633.614 479.451 632.172 478.343 630.524 477.643C628.876 476.944 627.078 476.675 625.298 476.864C613.191 478.103 600.965 479.093 588.729 479.863C587.059 479.983 585.39 480.083 583.73 480.173C504.815 484.861 426.609 481.062 384.292 478.173L381.293 477.953C373.965 477.433 367.837 476.954 363.118 476.544C360.522 476.325 357.938 477.075 355.862 478.65C353.787 480.225 352.369 482.512 351.882 485.071C351.781 485.612 351.721 486.16 351.702 486.711L351.022 508.864L350.092 536.925L349.652 551.281V551.561V552.4L349.632 552.36Z" fill="#031E26"/>
<path opacity="0.1" d="M637.134 491.12L635.905 506.445L634.075 529.288L633.615 535.006L632.616 547.812L632.556 548.452V548.622L632.406 550.101L632.516 548.622H632.226L525.259 549.622L349.663 551.521V551.241L350.152 536.886L351.152 508.834L351.792 490.19C351.823 489.129 352.12 488.093 352.654 487.177C353.188 486.26 353.944 485.492 354.851 484.941C355.983 484.248 357.307 483.932 358.63 484.042C360.729 484.212 363.308 484.412 366.317 484.632C371.206 484.991 377.234 485.411 384.252 485.851C397.248 486.671 413.553 487.551 432.237 488.27C484.221 490.27 554.4 490.94 621.059 485.101C624.058 484.841 627.157 484.552 630.186 484.262C631.385 484.142 632.593 484.371 633.665 484.921C633.969 485.073 634.257 485.254 634.525 485.461C635.395 486.092 636.085 486.94 636.524 487.92C636.626 488.116 636.71 488.32 636.774 488.53C637.075 489.359 637.197 490.241 637.134 491.12Z" fill="black"/>
<path opacity="0.1" d="M298.009 504.805V507.994C298.009 509.154 297.681 510.29 297.061 511.27C296.442 512.25 295.557 513.035 294.51 513.532L254.422 514.302C253.356 513.814 252.453 513.029 251.82 512.042C251.188 511.055 250.852 509.907 250.853 508.734V505.735L298.009 504.805Z" fill="black"/>
<path d="M298.508 515.412L246.274 516.412V507.744L298.508 506.745V515.412Z" fill="#031E26"/>
<path opacity="0.1" d="M298.508 515.412L246.274 516.412V507.744L298.508 506.745V515.412Z" fill="black"/>
<path d="M300.508 515.412L248.274 516.412V507.744L300.508 506.745V515.412Z" fill="#031E26"/>
<g opacity="0.1">
<path d="M473.444 188.592C472.468 187.323 471.819 185.833 471.555 184.253C471.314 185.797 471.458 187.377 471.975 188.852C472.471 188.806 472.962 188.719 473.444 188.592Z" fill="black"/>
<path d="M460.748 195.23C460.56 194.005 460.436 192.77 460.378 191.531C460.378 192.761 460.378 194 460.378 195.24L460.748 195.23Z" fill="black"/>
<path d="M542.223 228.59C542.278 227.699 542.399 226.814 542.583 225.941C543.056 224.42 543.325 222.843 543.383 221.252C543.36 220.895 543.307 220.54 543.223 220.192C543.053 221.112 542.783 222.032 542.583 222.942C542.184 224.796 542.062 226.7 542.223 228.59Z" fill="black"/>
<path d="M521.43 197.699L522.519 198.489C523.438 197.825 524.298 197.082 525.089 196.27C525.465 195.749 525.698 195.14 525.764 194.501C525.831 193.862 525.729 193.218 525.468 192.631C525.369 192.859 525.241 193.074 525.089 193.271C523.859 194.85 521.14 195.72 521.43 197.699Z" fill="black"/>
<path d="M439.285 207.316C438.92 208.046 438.629 208.809 438.415 209.596C439.979 208.723 441.663 208.086 443.414 207.706L439.285 207.316Z" fill="black"/>
<path d="M453.071 196.44C452.414 196.078 451.786 195.667 451.191 195.21C451.166 195.606 451.196 196.003 451.281 196.39C451.878 196.361 452.477 196.378 453.071 196.44Z" fill="black"/>
<path d="M550.811 255.342C550.401 260.19 548.141 264.859 546.312 269.457C542.643 278.674 540.574 288.451 539.024 298.258C537.635 307.046 536.025 317.023 528.528 321.891C526.385 323.171 524.091 324.178 521.7 324.89C510.923 328.619 500.056 332.358 488.71 333.718C477.363 335.077 465.457 333.887 455.56 328.229C452.69 326.732 450.227 324.56 448.382 321.901C445.713 317.672 445.663 312.374 444.383 307.536C443.292 303.943 441.956 300.429 440.385 297.019C438.175 291.64 436.476 286.022 434.786 280.494C433.22 275.355 431.657 270.214 430.098 265.069C429.584 263.521 429.203 261.932 428.958 260.32C428.568 262.879 429.328 265.558 430.098 268.068C431.657 273.219 433.22 278.361 434.786 283.493C436.476 289.061 438.175 294.639 440.385 300.018C441.956 303.428 443.292 306.942 444.383 310.535C445.643 315.373 445.693 320.672 448.382 324.9C450.227 327.559 452.69 329.731 455.56 331.228C465.457 336.887 477.393 338.076 488.71 336.717C500.026 335.357 510.883 331.618 521.7 327.889C524.091 327.178 526.385 326.17 528.528 324.89C535.975 320.022 537.635 310.045 539.024 301.257C540.574 291.45 542.643 281.673 546.312 272.456C548.491 266.978 551.311 261.41 550.831 255.522C550.831 255.462 550.811 255.402 550.811 255.342Z" fill="black"/>
<path d="M431.157 251.473C431.157 251.473 431.157 251.403 431.157 251.363C431.338 249.6 431.182 247.819 430.697 246.114C430.498 245.017 430.368 243.909 430.308 242.795C430.192 244.909 430.323 247.03 430.697 249.113C430.857 249.893 431.037 250.683 431.157 251.473Z" fill="black"/>
<path d="M434.206 227.02C434.975 225.729 435.848 224.502 436.816 223.351C434.986 225.101 431.607 223.541 430.897 221.112C430.636 222.095 430.636 223.129 430.897 224.111C431.144 224.845 431.579 225.5 432.16 226.011C432.741 226.522 433.447 226.87 434.206 227.02Z" fill="black"/>
</g>
<path opacity="0.1" d="M683.89 483.512C683.89 483.512 687.059 495.008 683.89 505.005C680.721 515.002 683.89 483.512 683.89 483.512Z" fill="black"/>
<path opacity="0.1" d="M697.385 495.238C697.385 495.238 698.715 509.834 695.716 512.423C692.717 515.012 697.385 495.238 697.385 495.238Z" fill="black"/>
<path d="M198.929 342.755L300.507 341.755" stroke="#56A3A6" stroke-width="2" stroke-miterlimit="10"/>
<path d="M198.929 355.221L300.507 354.231" stroke="#56A3A6" stroke-width="2" stroke-miterlimit="10"/>
<path d="M198.929 367.697L300.507 366.698" stroke="#56A3A6" stroke-width="2" stroke-miterlimit="10"/>
</g>
<defs>
<linearGradient id="paint0_linear_414_206" x1="518.251" y1="552.361" x2="518.251" y2="174.726" gradientUnits="userSpaceOnUse">
<stop stop-color="#808080" stop-opacity="0.25"/>
<stop offset="0.54" stop-color="#808080" stop-opacity="0.12"/>
<stop offset="1" stop-color="#808080" stop-opacity="0.1"/>
</linearGradient>
<clipPath id="clip0_414_206">
<rect width="1041" height="554" fill="white"/>
</clipPath>
</defs>
</svg>
